<svg viewBox="0 0 600 400" xmlns="http://www.w3.org/2000/svg">
  <defs>
    <linearGradient id="bg-tic-tac-toe-3x3" x1="0%" y1="0%" x2="100%" y2="100%">
      <stop offset="0%" stop-color="#070b14"/>
      <stop offset="100%" stop-color="#0d1424"/>
    </linearGradient>
    <pattern id="grid-tic-tac-toe-3x3" width="30" height="30" patternUnits="userSpaceOnUse">
      <path d="M30 0 H0 V30" fill="none" stroke="#b026ff" stroke-opacity="0.08" stroke-width="1"/>
    </pattern>
    <filter id="glow-tic-tac-toe-3x3">
      <feGaussianBlur stdDeviation="4" result="blur"/>
      <feMerge>
        <feMergeNode in="blur"/>
        <feMergeNode in="SourceGraphic"/>
      </feMerge>
    </filter>
  </defs>
  <rect width="600" height="400" fill="url(#bg-tic-tac-toe-3x3)"/>
  <rect width="600" height="400" fill="url(#grid-tic-tac-toe-3x3)"/>
  <rect x="2" y="2" width="596" height="396" fill="none" stroke="#b026ff" stroke-opacity="0.35" stroke-width="2"/>
  <circle cx="28" cy="28" r="6" fill="#ff5f57"/>
  <circle cx="48" cy="28" r="6" fill="#febc2e"/>
  <circle cx="68" cy="28" r="6" fill="#28c840"/>
  <text x="300" y="34" text-anchor="middle" font-family="JetBrains Mono, monospace" font-size="13" fill="#7d8aa3">~/projects/tic-tac-toe-3x3</text>
  <g transform="translate(200,30) scale(1)" filter="url(#glow-tic-tac-toe-3x3)" opacity="0.95">
    <g fill="none" stroke="#b026ff" stroke-width="4"><rect x="55" y="55" width="90" height="90"/><line x1="85" y1="55" x2="85" y2="145"/><line x1="115" y1="55" x2="115" y2="145"/><line x1="55" y1="85" x2="145" y2="85"/><line x1="55" y1="115" x2="145" y2="115"/></g><path d="M62 62 L78 78 M78 62 L62 78" stroke="#b026ff" stroke-width="4" stroke-linecap="round"/><circle cx="100" cy="70" r="9" stroke="#b026ff" stroke-width="4" fill="none"/><path d="M122 122 L138 138 M138 122 L122 138" stroke="#b026ff" stroke-width="4" stroke-linecap="round"/>
  </g>
  <text x="300" y="320" text-anchor="middle" font-family="Sora, sans-serif" font-size="26" font-weight="700" fill="#e8f3ff">Tic-Tac-Toe-3x3</text>
  <text x="300" y="350" text-anchor="middle" font-family="JetBrains Mono, monospace" font-size="14" fill="#b026ff">&gt; view_on_github --repo</text>
</svg>
