<svg viewBox="0 0 600 400" xmlns="http://www.w3.org/2000/svg">
  <defs>
    <linearGradient id="bg-tic-tac-toe-5x5" x1="0%" y1="0%" x2="100%" y2="100%">
      <stop offset="0%" stop-color="#070b14"/>
      <stop offset="100%" stop-color="#0d1424"/>
    </linearGradient>
    <pattern id="grid-tic-tac-toe-5x5" width="30" height="30" patternUnits="userSpaceOnUse">
      <path d="M30 0 H0 V30" fill="none" stroke="#00f6ff" stroke-opacity="0.08" stroke-width="1"/>
    </pattern>
    <filter id="glow-tic-tac-toe-5x5">
      <feGaussianBlur stdDeviation="4" result="blur"/>
      <feMerge>
        <feMergeNode in="blur"/>
        <feMergeNode in="SourceGraphic"/>
      </feMerge>
    </filter>
  </defs>
  <rect width="600" height="400" fill="url(#bg-tic-tac-toe-5x5)"/>
  <rect width="600" height="400" fill="url(#grid-tic-tac-toe-5x5)"/>
  <rect x="2" y="2" width="596" height="396" fill="none" stroke="#00f6ff" stroke-opacity="0.35" stroke-width="2"/>
  <circle cx="28" cy="28" r="6" fill="#ff5f57"/>
  <circle cx="48" cy="28" r="6" fill="#febc2e"/>
  <circle cx="68" cy="28" r="6" fill="#28c840"/>
  <text x="300" y="34" text-anchor="middle" font-family="JetBrains Mono, monospace" font-size="13" fill="#7d8aa3">~/projects/tic-tac-toe-5x5</text>
  <g transform="translate(200,30) scale(1)" filter="url(#glow-tic-tac-toe-5x5)" opacity="0.95">
    <g fill="none" stroke="#00f6ff" stroke-width="3"><rect x="50" y="50" width="100" height="100"/><line x1="70" y1="50" x2="70" y2="150"/><line x1="90" y1="50" x2="90" y2="150"/><line x1="110" y1="50" x2="110" y2="150"/><line x1="130" y1="50" x2="130" y2="150"/><line x1="50" y1="70" x2="150" y2="70"/><line x1="50" y1="90" x2="150" y2="90"/><line x1="50" y1="110" x2="150" y2="110"/><line x1="50" y1="130" x2="150" y2="130"/></g>
  </g>
  <text x="300" y="320" text-anchor="middle" font-family="Sora, sans-serif" font-size="26" font-weight="700" fill="#e8f3ff">Tic-Tac-Toe-5x5</text>
  <text x="300" y="350" text-anchor="middle" font-family="JetBrains Mono, monospace" font-size="14" fill="#00f6ff">&gt; view_on_github --repo</text>
</svg>
